<?xml version="1.0" encoding="iso-8859-1"?>
<!-- Generator: Adobe Illustrator 19.0.0, SVG Export Plug-In . SVG Version: 6.00 Build 0)  -->
<svg version="1.1" id="Capa_1" xmlns="http://www.w3.org/2000/svg" xmlns:xlink="http://www.w3.org/1999/xlink" x="0px" y="0px"
	 viewBox="0 0 512 512" style="enable-background:new 0 0 512 512;" xml:space="preserve">
<g>
	<g>
		<path d="M490.715,31.209c-13.697-11.286-31.546-15.719-48.919-12.159L264.678,55.325c-5.759,1.184-11.596,1.184-17.361-0.001
			L70.204,19.05c-17.371-3.56-35.215,0.871-48.912,12.153C7.611,42.472,0,59.511,0,77.235v4.463c0,3.526,2.424,6.589,5.855,7.4
			l140.049,33.096c14.263,3.373,24.225,15.966,24.225,30.622v208.388c0,4.199,3.405,7.604,7.604,7.604
			c4.199,0,7.604-3.405,7.604-7.604v-17.05h29.644c1.373,13.2,6.285,25.36,13.758,35.528v77.555c0,5.792-2.26,11.246-6.357,15.351
			c-4.081,4.082-9.501,6.338-15.269,6.356c-11.981,0.039-21.778-10.294-21.778-22.275v-59.978c0-4.199-3.405-7.604-7.604-7.604
			s-7.604,3.405-7.604,7.604v59.809c0,20.24,15.98,37.274,36.216,37.646c10.116,0.186,19.657-3.668,26.797-10.81
			c6.967-6.981,10.805-16.25,10.805-26.099v-62.204c12.178,9.108,27.284,14.507,43.626,14.507c2.479,0,4.928-0.127,7.344-0.369
			c5.291,8.076,18.487,22.959,46.051,28.128c14.847,2.783,27.494-1.027,38.653-4.389c17.06-5.142,29.391-8.856,46.935,8.689
			c1.47,1.47,3.418,2.227,5.38,2.227c1.473,0,2.954-0.427,4.248-1.299c3.018-2.034,4.17-5.921,2.751-9.273
			c-0.302-0.714-7.612-17.645-25.581-32.171c-13.576-10.975-35.587-22.273-67.614-20.503c9.294-12.248,14.824-27.503,14.824-44.03
			c0-15.066-4.59-29.08-12.442-40.719h95.741c20.222,0,37.249-15.958,37.637-36.177c0.194-10.12-3.659-19.675-10.809-26.838
			c-6.982-6.968-16.25-10.805-26.099-10.805h-38.029c-4.199,0-7.604,3.405-7.604,7.604s3.405,7.604,7.604,7.604h38.029
			c5.792,0,11.246,2.26,15.346,6.351c4.089,4.097,6.347,9.528,6.361,15.301c0.029,11.967-10.3,21.751-22.266,21.751H362.77V237.22
			h8.306c4.199,0,7.604-3.405,7.604-7.604s-3.405-7.604-7.604-7.604h-29.013v-69.207c0-14.649,9.957-27.236,24.215-30.612
			l139.869-33.096c3.431-0.811,5.853-3.874,5.853-7.399v-4.462C512,59.515,504.392,42.479,490.715,31.209z M139.91,105.151
			L15.213,75.683c0.189-12.808,5.965-24.759,15.908-32.873c10.114-8.251,23.249-11.479,36.031-8.861l93.119,19.072L139.91,105.151z
			 M231.403,350.067c-1.042-4.339-1.611-8.862-1.611-13.517c0-31.861,25.92-57.782,57.782-57.782
			c13.268,0,25.498,4.507,35.262,12.055c-5.846-0.331-11.888,0.617-18.108,2.846l-2.261-5.395c-1.624-3.874-6.084-5.699-9.951-4.075
			c-3.873,1.623-5.698,6.079-4.075,9.952l2.63,6.277c-5.883,3.663-11.586,8.105-17.072,12.834l-2.192-7.203
			c-1.223-4.018-5.473-6.284-9.488-5.061c-4.018,1.223-6.283,5.471-5.06,9.488l4.299,14.129c-1.387,1.317-2.761,2.628-4.111,3.919
			C248.529,337.061,238.673,346.479,231.403,350.067z M287.575,394.33c-21.827,0.001-40.863-12.167-50.69-30.073
			c9.795-4.394,19.875-14.025,31.074-24.731c13.21-12.628,24.752-23.015,35.49-28.755c0.059-0.022,0.118-0.04,0.176-0.064
			c0.445-0.187,0.859-0.414,1.247-0.67c12.773-6.373,24.445-5.934,36.494,5.457c2.565,6.529,3.99,13.627,3.99,21.056
			C345.356,368.41,319.435,394.33,287.575,394.33z M404.873,413.665c-10.637-1.044-20.453,1.914-29.638,4.683
			c-10.415,3.139-20.256,6.104-31.463,4.002c-17.283-3.24-27.214-10.896-32.517-16.775c5.427-1.868,10.564-4.355,15.331-7.382
			l0.084,0.38C364.827,390.095,389.693,401.013,404.873,413.665z M347.562,237.219L347.562,237.219v43.403h-13.154
			c-12.684-10.64-29.021-17.063-46.833-17.063c-37.679,0-68.778,28.699-72.594,65.386h-29.644v-99.018l141.518-36.585v36.273
			c0,4.199,3.404,7.604,7.604,7.604H347.562z M185.337,214.22v-58.416l141.518,16.367v5.464L185.337,214.22z M326.855,152.805v4.057
			l-143.213-16.563c-3.962-14.369-14.617-26.093-28.907-31.302l20.655-52.881l68.869,14.105c7.792,1.603,15.694,1.603,23.476,0.001
			l68.746-14.08l20.684,52.955C339.06,115.829,326.855,133.053,326.855,152.805z M371.977,105.218l-20.378-52.171l93.249-19.098
			c12.786-2.621,25.917,0.611,36.031,8.861c9.946,8.115,15.72,20.066,15.909,32.875L371.977,105.218z"/>
	</g>
</g>
<g>
</g>
<g>
</g>
<g>
</g>
<g>
</g>
<g>
</g>
<g>
</g>
<g>
</g>
<g>
</g>
<g>
</g>
<g>
</g>
<g>
</g>
<g>
</g>
<g>
</g>
<g>
</g>
<g>
</g>
</svg>
