<?xml version="1.0" encoding="utf-8"?>
<!-- Generator: Adobe Illustrator 16.0.3, SVG Export Plug-In . SVG Version: 6.00 Build 0)  -->
<!DOCTYPE svg PUBLIC "-//W3C//DTD SVG 1.1//EN" "http://www.w3.org/Graphics/SVG/1.1/DTD/svg11.dtd">
<svg version="1.1" id="Capa_1" xmlns="http://www.w3.org/2000/svg" xmlns:xlink="http://www.w3.org/1999/xlink" x="0px" y="0px"
	 width="1920px" height="655px" viewBox="0 0 1920 655" enable-background="new 0 0 1920 655" xml:space="preserve">
<rect x="530.228" y="425.769" transform="matrix(-0.8659 0.5002 -0.5002 -0.8659 1216.2095 569.7223)" fill="#E66053" width="3.028" height="44.215"/>
<path fill="none" stroke="#FBB300" stroke-width="11" d="M1671.5,622.5c0,14.912-12.09,27-27,27s-27-12.088-27-27s12.09-27,27-27
	S1671.5,607.588,1671.5,622.5z"/>
<path fill="none" stroke="#E66053" stroke-width="6" d="M1305.25,159.577l-17.75,30.75l-17.75-30.75H1305.25z"/>
<circle fill="#E66053" cx="656.5" cy="476.827" r="4.5"/>
<circle fill="none" stroke="#E66053" stroke-width="3" cx="75.314" cy="164.508" r="32.834"/>
<path fill="#E66053" d="M268.899,419.853l22.844,36.611l-43.127,1.479L268.899,419.853z"/>
<path fill="none" stroke="#FBB300" stroke-width="6" d="M299.186,108.776l24.233-25.953l10.359,33.963L299.186,108.776z"/>
<circle fill="none" stroke="#E66053" stroke-width="11" cx="1773.77" cy="204.338" r="49.622"/>
<path fill="#FAB312" d="M1566.61,104.359l20,0.42l-9.641-17.526L1566.61,104.359z"/>
<path fill="none" stroke="#E66053" stroke-width="6" d="M1623.439,375.086l19.871,5.773l-14.931,14.32L1623.439,375.086z"/>
</svg>
